<svg width="28" height="22" viewBox="0 0 28 22" fill="none" xmlns="http://www.w3.org/2000/svg">
<path d="M24.5173 4.78C23.687 3.255 22.3081 2.10254 20.66 1.556C19.6819 1.20174 18.6625 0.974109 17.6267 0.878662C17.3743 1.3265 17.1481 1.78861 16.9493 2.26266C14.9344 1.95362 12.8842 1.95362 10.8693 2.26266C10.6624 1.78985 10.4314 1.32792 10.1773 0.878662C9.17466 0.987995 8.18666 1.21066 7.23333 1.54133C5.57396 2.09044 4.18822 3.25477 3.36133 4.79466C1.17887 8.7409 0.288229 13.272 0.814664 17.7507C2.82124 19.242 5.06648 20.3817 7.45466 21.1213C8.13123 20.4634 8.63658 19.65 8.92666 18.752C8.20666 18.4827 7.51333 18.152 6.85066 17.7653C6.732 17.6027 7.18933 17.3387 7.336 17.2933C9.43017 18.2748 11.7146 18.7835 14.0273 18.7835C16.3401 18.7835 18.6245 18.2748 20.7187 17.2933C20.852 17.2933 21.3227 17.6027 21.204 17.7653C20.616 18.2213 19.3053 18.5453 19.084 18.8693C19.4698 19.6842 19.9656 20.4424 20.5573 21.1227C22.9497 20.3821 25.1993 19.2415 27.2107 17.7493C27.6904 13.251 26.7485 8.71537 24.5173 4.78ZM9.55866 14.6C8.87412 14.5919 8.22062 14.3132 7.74093 13.8248C7.26125 13.3363 6.99439 12.6779 6.99866 11.9933C7.01007 11.3192 7.28386 10.676 7.76187 10.2005C8.23988 9.72497 8.88445 9.45455 9.55866 9.44666C9.90028 9.44822 10.2382 9.51737 10.553 9.65011C10.8678 9.78286 11.1532 9.97658 11.3927 10.2201C11.6323 10.4637 11.8213 10.7522 11.9489 11.0691C12.0765 11.386 12.14 11.7251 12.136 12.0667C12.1211 12.7415 11.8434 13.3838 11.362 13.8569C10.8806 14.3301 10.2336 14.5967 9.55866 14.6ZM18.392 14.6C17.7072 14.5961 17.0518 14.3213 16.5691 13.8356C16.0864 13.3499 15.8156 12.6928 15.816 12.008C15.819 11.6696 15.8886 11.3351 16.0208 11.0237C16.153 10.7122 16.3453 10.4298 16.5867 10.1927C16.8281 9.95549 17.1138 9.7682 17.4276 9.64146C17.7413 9.51472 18.077 9.45102 18.4153 9.45399C18.7537 9.45697 19.0882 9.52657 19.3997 9.65881C19.7111 9.79105 19.9935 9.98334 20.2307 10.2247C20.4678 10.4661 20.6551 10.7518 20.7819 11.0656C20.9086 11.3793 20.9723 11.715 20.9693 12.0533C20.9578 12.7291 20.6811 13.3733 20.199 13.8469C19.7168 14.3206 19.0679 14.5858 18.392 14.5853V14.6Z" fill="#5C5C5C"/>
</svg>
