<svg width="35" height="37" viewBox="0 0 35 37" fill="none" xmlns="http://www.w3.org/2000/svg">
<path d="M11.7067 28.0423C11.7067 28.1834 11.5444 28.2963 11.3397 28.2963C11.1069 28.3175 10.9446 28.2046 10.9446 28.0423C10.9446 27.9011 11.1069 27.7882 11.3115 27.7882C11.5232 27.7671 11.7067 27.88 11.7067 28.0423ZM9.5121 27.7247C9.4627 27.8659 9.60383 28.0282 9.81552 28.0705C9.99899 28.1411 10.2107 28.0705 10.253 27.9294C10.2954 27.7882 10.1613 27.6259 9.9496 27.5624C9.76613 27.513 9.56149 27.5836 9.5121 27.7247ZM12.631 27.6048C12.4264 27.6542 12.2853 27.7882 12.3065 27.9505C12.3276 28.0917 12.5111 28.1834 12.7228 28.134C12.9274 28.0846 13.0685 27.9505 13.0474 27.8094C13.0262 27.6753 12.8357 27.5836 12.631 27.6048ZM17.2742 0.564453C7.4869 0.564453 0 7.9949 0 17.7822C0 25.6078 4.9254 32.3044 11.9607 34.6612C12.8639 34.8235 13.1815 34.2661 13.1815 33.8074C13.1815 33.3699 13.1603 30.9566 13.1603 29.4747C13.1603 29.4747 8.22077 30.5332 7.18347 27.3719C7.18347 27.3719 6.37903 25.3185 5.22177 24.7893C5.22177 24.7893 3.60585 23.6814 5.33468 23.7026C5.33468 23.7026 7.09173 23.8437 8.05847 25.5231C9.60383 28.2469 12.1935 27.4636 13.2026 26.9979C13.3649 25.8689 13.8236 25.0856 14.3317 24.6199C10.3871 24.1824 6.40726 23.6108 6.40726 16.8225C6.40726 14.882 6.94355 13.9082 8.07258 12.6663C7.88911 12.2076 7.28931 10.3165 8.25605 7.87494C9.73085 7.41627 13.125 9.78018 13.125 9.78018C14.5363 9.38502 16.0534 9.18038 17.5565 9.18038C19.0595 9.18038 20.5766 9.38502 21.9879 9.78018C21.9879 9.78018 25.3821 7.40921 26.8569 7.87494C27.8236 10.3235 27.2238 12.2076 27.0403 12.6663C28.1694 13.9153 28.8609 14.8891 28.8609 16.8225C28.8609 23.632 24.7046 24.1753 20.7601 24.6199C21.4093 25.1774 21.9597 26.2358 21.9597 27.8941C21.9597 30.2721 21.9385 33.2147 21.9385 33.7933C21.9385 34.252 22.2631 34.8094 23.1593 34.6471C30.2157 32.3044 35 25.6078 35 17.7822C35 7.9949 27.0615 0.564453 17.2742 0.564453ZM6.85887 24.9022C6.76714 24.9727 6.78831 25.135 6.90827 25.2691C7.02117 25.382 7.18347 25.4314 7.2752 25.3397C7.36694 25.2691 7.34577 25.1068 7.22581 24.9727C7.1129 24.8598 6.9506 24.8104 6.85887 24.9022ZM6.09677 24.3306C6.04738 24.4223 6.11794 24.5352 6.25907 24.6058C6.37198 24.6764 6.5131 24.6552 6.5625 24.5564C6.6119 24.4647 6.54133 24.3518 6.4002 24.2812C6.25907 24.2389 6.14617 24.26 6.09677 24.3306ZM8.38306 26.8427C8.27016 26.9344 8.3125 27.1461 8.4748 27.2802C8.6371 27.4425 8.84173 27.4636 8.93347 27.3507C9.0252 27.259 8.98286 27.0473 8.84173 26.9132C8.68649 26.7509 8.4748 26.7298 8.38306 26.8427ZM7.57863 25.8054C7.46573 25.8759 7.46573 26.0594 7.57863 26.2217C7.69153 26.384 7.88206 26.4546 7.97379 26.384C8.08669 26.2923 8.08669 26.1088 7.97379 25.9465C7.875 25.7842 7.69153 25.7137 7.57863 25.8054Z" fill="#5C5C5C"/>
</svg>
