<svg width="23" height="23" viewBox="0 0 23 23" fill="none" xmlns="http://www.w3.org/2000/svg">
<path d="M5.3538 7.37402H0.736507C0.531585 7.37402 0.36554 7.54014 0.36554 7.74499V22.5784C0.36554 22.7833 0.531585 22.9493 0.736507 22.9493H5.3538C5.55872 22.9493 5.72476 22.7833 5.72476 22.5784V7.74499C5.72476 7.54014 5.55872 7.37402 5.3538 7.37402Z" fill="#5C5C5C"/>
<path d="M3.04683 0C1.36679 0 0 1.36531 0 3.04349C0 4.72242 1.36679 6.08825 3.04683 6.08825C4.72554 6.08825 6.09122 4.72234 6.09122 3.04349C6.09129 1.36531 4.72554 0 3.04683 0Z" fill="#5C5C5C"/>
<path d="M17.0983 7.00537C15.2438 7.00537 13.8729 7.80258 13.0414 8.70841V7.74501C13.0414 7.54016 12.8754 7.37404 12.6705 7.37404H8.24859C8.04367 7.37404 7.87762 7.54016 7.87762 7.74501V22.5784C7.87762 22.7833 8.04367 22.9493 8.24859 22.9493H12.8558C13.0607 22.9493 13.2268 22.7833 13.2268 22.5784V15.2393C13.2268 12.7662 13.8985 11.8027 15.6225 11.8027C17.5 11.8027 17.6492 13.3473 17.6492 15.3665V22.5784C17.6492 22.7834 17.8153 22.9494 18.0202 22.9494H22.6291C22.834 22.9494 23.0001 22.7834 23.0001 22.5784V14.4421C23.0001 10.7647 22.2988 7.00537 17.0983 7.00537Z" fill="#5C5C5C"/>
</svg>
