<svg width="30" height="30" viewBox="0 0 30 30" fill="none" xmlns="http://www.w3.org/2000/svg">
<path d="M20.5133 11.2251L21.5625 10.2214L21.5616 10H17.9345L15.3492 16.4502L12.4082 10.0008H8.60356V10.2214L9.82945 11.6972C9.88871 11.7506 9.93456 11.8171 9.96328 11.8915C9.99199 11.9659 10.0027 12.046 9.99469 12.1254V17.9267C10.0123 18.0298 10.0054 18.1357 9.97456 18.2357C9.94374 18.3356 9.88985 18.427 9.81724 18.5022L8.4375 20.1751V20.3948H12.3463V20.1751L10.9674 18.5022C10.8942 18.427 10.8391 18.3361 10.8062 18.2363C10.7734 18.1367 10.7636 18.0308 10.7778 17.9267V12.9101L14.2087 20.3956H14.6076L17.5544 12.9101V18.8767C17.5544 19.0346 17.5544 19.0656 17.4501 19.1697L16.3895 20.1987V20.4185H21.5365V20.1987L20.5133 19.1942C20.469 19.1603 20.4347 19.1152 20.4142 19.0633C20.3937 19.0116 20.3877 18.9552 20.3969 18.9003V11.5189C20.3877 11.464 20.3937 11.4076 20.4142 11.3559C20.4347 11.3041 20.469 11.2589 20.5133 11.2251Z" fill="#5C5C5C"/>
<path fill-rule="evenodd" clip-rule="evenodd" d="M21.5727 3.5412C17.2395 3.0569 12.7602 3.0569 8.42707 3.5412C5.912 3.8223 3.88158 5.80357 3.5859 8.33173C3.06772 12.7621 3.06772 17.2378 3.5859 21.6681C3.88158 24.1963 5.912 26.1776 8.42707 26.4586C12.7602 26.943 17.2395 26.943 21.5727 26.4586C24.0877 26.1776 26.1181 24.1963 26.4139 21.6681C26.932 17.2378 26.932 12.7621 26.4139 8.33173C26.1181 5.80357 24.0877 3.8223 21.5727 3.5412ZM8.63533 5.4046C12.8301 4.93577 17.1696 4.93577 21.3644 5.4046C23.0271 5.59043 24.3589 6.90244 24.5516 8.54954C25.0529 12.8353 25.0529 17.1646 24.5516 21.4504C24.3589 23.0974 23.0271 24.4095 21.3644 24.5953C17.1696 25.0641 12.8301 25.0641 8.63533 24.5953C6.9727 24.4095 5.64083 23.0974 5.4482 21.4504C4.94695 17.1646 4.94695 12.8353 5.4482 8.54954C5.64083 6.90244 6.9727 5.59043 8.63533 5.4046Z" fill="#5C5C5C"/>
</svg>
