<svg width="26" height="26" viewBox="0 0 26 26" fill="none" xmlns="http://www.w3.org/2000/svg">
<g clip-path="url(#clip0_59_106)">
<path d="M25.4106 4.81311C25.0022 4.99427 24.5822 5.14717 24.1532 5.2713C24.6612 4.69678 25.0485 4.02078 25.2849 3.28104C25.3379 3.11523 25.283 2.93373 25.1467 2.82528C25.0106 2.71675 24.8214 2.70376 24.6716 2.79257C23.7603 3.33304 22.7772 3.72145 21.7463 3.94857C20.7079 2.9339 19.2975 2.35645 17.8395 2.35645C14.7619 2.35645 12.258 4.86024 12.258 7.93781C12.258 8.18019 12.2733 8.42124 12.3037 8.65893C8.48464 8.32361 4.93413 6.4465 2.496 3.45574C2.40911 3.34914 2.27525 3.29169 2.13821 3.30268C2.00108 3.31341 1.87787 3.39074 1.8086 3.50959C1.31409 4.35811 1.05267 5.32858 1.05267 6.31599C1.05267 7.66086 1.53283 8.93688 2.38102 9.93394C2.12311 9.84461 1.87284 9.73298 1.63398 9.60038C1.50574 9.52901 1.34923 9.5301 1.22183 9.60315C1.09435 9.6762 1.01442 9.81056 1.01107 9.95742C1.01048 9.98216 1.01048 10.0069 1.01048 10.032C1.01048 12.0394 2.09091 13.8468 3.74274 14.8318C3.60083 14.8177 3.45901 14.7971 3.31811 14.7702C3.17284 14.7424 3.02347 14.7933 2.92551 14.9041C2.82738 15.0148 2.79492 15.1692 2.84012 15.3101C3.45154 17.219 5.02572 18.6231 6.92875 19.0511C5.35038 20.0397 3.5454 20.5575 1.65058 20.5575C1.25522 20.5575 0.857583 20.5343 0.468422 20.4883C0.275099 20.4653 0.0902476 20.5794 0.0244089 20.7633C-0.0414298 20.9472 0.0283508 21.1523 0.192822 21.2577C2.62701 22.8184 5.44163 23.6434 8.33225 23.6434C14.0148 23.6434 17.5697 20.9637 19.5512 18.7157C22.022 15.9127 23.4391 12.2025 23.4391 8.53656C23.4391 8.38341 23.4367 8.22875 23.432 8.0746C24.4069 7.34014 25.2462 6.45128 25.9291 5.42965C26.0329 5.27448 26.0216 5.06942 25.9015 4.92659C25.7814 4.78367 25.5814 4.73746 25.4106 4.81311Z" fill="#5C5C5C"/>
</g>
<defs>
<clipPath id="clip0_59_106">
<rect width="26" height="26" fill="white"/>
</clipPath>
</defs>
</svg>
