<svg preserveAspectRatio="none" overflow="visible" style="display: block;" width="17.3229" height="17.3229" viewBox="0 0 17.3229 17.3229" fill="none" xmlns="http://www.w3.org/2000/svg">
<g id="sitemap">
<path id="Vector" d="M6.49629 2.16517H10.1052V5.77412H8.66166V8.66127H12.2706C12.8449 8.66127 13.3957 8.88941 13.8017 9.29549C14.2078 9.70158 14.436 10.2523 14.436 10.8266V12.2702H15.8795V15.8792H12.2706V12.2702H13.7142V10.8266C13.7142 10.4438 13.5621 10.0766 13.2914 9.80588C13.0206 9.53515 12.6535 9.38306 12.2706 9.38306H8.66166V12.2702H10.1052V15.8792H6.49629V12.2702H7.93987V9.38306H4.33092C3.94806 9.38306 3.58088 9.53515 3.31016 9.80588C3.03944 10.0766 2.88735 10.4438 2.88735 10.8266V12.2702H4.33092V15.8792H0.721981V12.2702H2.16556V10.8266C2.16556 10.2523 2.39369 9.70158 2.79978 9.29549C3.20586 8.88941 3.75663 8.66127 4.33092 8.66127H7.93987V5.77412H6.49629V2.16517ZM9.38345 5.05233V2.88696H7.21808V5.05233H9.38345ZM3.60914 15.1574V12.992H1.44377V15.1574H3.60914ZM9.38345 15.1574V12.992H7.21808V15.1574H9.38345ZM15.1578 15.1574V12.992H12.9924V15.1574H15.1578Z" fill="white"/>
</g>
</svg>
