<svg width="44" height="44" viewBox="0 0 44 44" fill="none" xmlns="http://www.w3.org/2000/svg">
<circle cx="22" cy="22" r="21.5" stroke="#CCCCCC"/>
<g clip-path="url(#clip0_218_982)">
<path d="M28.3447 10.9618C28.2715 10.5711 28.0078 10.244 27.6416 10.0926C27.2754 9.94126 26.8555 9.9852 26.5283 10.2098L22.5 12.9832L18.4717 10.2049C18.1445 9.98032 17.7246 9.93637 17.3584 10.0877C16.9922 10.2391 16.7285 10.5663 16.6553 10.9569L15.7715 15.7664L10.9619 16.6551C10.5713 16.7284 10.2441 16.992 10.0928 17.3582C9.94139 17.7245 9.98534 18.1444 10.2099 18.4715L12.9834 22.4998L10.2051 26.5282C9.98046 26.8553 9.93651 27.2752 10.0879 27.6414C10.2392 28.0077 10.5664 28.2762 10.957 28.3446L15.7666 29.2284L16.6504 34.0379C16.7236 34.4286 16.9873 34.7557 17.3535 34.9071C17.7197 35.0584 18.1396 35.0145 18.4668 34.7899L22.5 32.0164L26.5283 34.7948C26.8555 35.0194 27.2754 35.0633 27.6416 34.912C28.0078 34.7606 28.2715 34.4334 28.3447 34.0428L29.2285 29.2332L34.0381 28.3495C34.4287 28.2762 34.7558 28.0125 34.9072 27.6463C35.0586 27.2801 35.0146 26.8602 34.79 26.5331L32.0166 22.4998L34.7949 18.4715C35.0195 18.1444 35.0635 17.7245 34.9121 17.3582C34.7607 16.992 34.4336 16.7284 34.043 16.6551L29.2334 15.7713L28.3447 10.9618ZM23.164 15.3709L26.3672 13.1639L27.0703 16.9872C27.1582 17.4657 27.5342 17.8416 28.0127 17.9295L31.8359 18.6327L29.6289 21.8358C29.3506 22.2362 29.3506 22.7635 29.6289 23.1639L31.8359 26.367L28.0127 27.0702C27.5342 27.1581 27.1582 27.534 27.0703 28.0125L26.3672 31.8358L23.164 29.6288C22.7637 29.3504 22.2363 29.3504 21.8359 29.6288L18.6328 31.8358L17.9297 28.0125C17.8418 27.534 17.4658 27.1581 16.9873 27.0702L13.164 26.367L15.3711 23.1639C15.6494 22.7635 15.6494 22.2362 15.3711 21.8358L13.164 18.6327L16.9873 17.9295C17.4658 17.8416 17.8418 17.4657 17.9297 16.9872L18.6328 13.1639L21.8359 15.3709C22.2363 15.6493 22.7637 15.6493 23.164 15.3709ZM22.5 27.9686C23.9504 27.9686 25.3414 27.3924 26.367 26.3668C27.3926 25.3412 27.9687 23.9503 27.9687 22.4998C27.9687 21.0494 27.3926 19.6584 26.367 18.6329C25.3414 17.6073 23.9504 17.0311 22.5 17.0311C21.0496 17.0311 19.6586 17.6073 18.633 18.6329C17.6074 19.6584 17.0312 21.0494 17.0312 22.4998C17.0312 23.9503 17.6074 25.3412 18.633 26.3668C19.6586 27.3924 21.0496 27.9686 22.5 27.9686ZM19.375 22.4998C19.375 21.671 19.7042 20.8762 20.2903 20.2901C20.8763 19.7041 21.6712 19.3748 22.5 19.3748C23.3288 19.3748 24.1236 19.7041 24.7097 20.2901C25.2957 20.8762 25.625 21.671 25.625 22.4998C25.625 23.3286 25.2957 24.1235 24.7097 24.7096C24.1236 25.2956 23.3288 25.6248 22.5 25.6248C21.6712 25.6248 20.8763 25.2956 20.2903 24.7096C19.7042 24.1235 19.375 23.3286 19.375 22.4998Z" fill="#CCCCCC" fill-opacity="0.8"/>
</g>
<defs>
<clipPath id="clip0_218_982">
<rect width="25" height="25" fill="white" transform="translate(10 10)"/>
</clipPath>
</defs>
</svg>
