<?xml version="1.0" standalone="no"?>
<svg xmlns="http://www.w3.org/2000/svg" height="1231pt" preserveAspectRatio="xMidYMid meet" viewBox="0 0 1920 1231" width="1920pt">
  <path d="m2220 12293c-77-6-290-43-372-64-596-152-1113-530-1443-1054-128-203-246-490-299-727-60-267-56 15-56-4303 0-3499 2-3968 15-4072 72-548 313-1027 711-1413 368-357 842-586 1344-650 61-8 2222-10 7540-8l7455 3 135 28c271 57 566 174 790 312 631 392 1049 1061 1120 1795 8 83 10 1221 7 4080-3 3665-4 3972-20 4060-123 693-487 1256-1057 1633-223 147-549 283-807 336-264 54 251 51-7688 49-4031-1-7350-3-7375-5zm14790-878c87-13 209-41 218-49 2-2-21-26-50-54-91-85-6189-5703-6269-5776-230-207-542-364-846-426-314-63-640-44-943 56-138 45-363 158-472 236-85 62-667 555-2643 2238-2938 2504-4240 3624-4230 3640 18 29 278 112 420 134 139 22 14675 23 14815 1zm1030-647c125-187 204-382 241-596 19-112 19-197 19-4027s0-3915-19-4027c-11-62-34-156-51-208-29-89-122-293-152-333-13-17-196 143-2239 1955-1224 1085-2392 2121-2596 2302l-371 329 427 393c234 216 1380 1273 2546 2348s2123 1955 2127 1955c4 1 34-40 68-91zm-16574-383c676-590 2461-2117 4799-4108 116-98 211-182 213-186 1-4-593-536-1320-1182-728-645-1905-1690-2616-2321-711-632-1297-1148-1302-1148-15 0-118 163-170 268-89 180-134 350-151 567-6 85-9 1467-6 3970 3 3595 4 3845 20 3925 36 175 101 361 162 466 26 45 26 45 49 27 13-10 158-135 322-278zm12135-6030c750-665 1912-1695 2582-2289l1218-1080-83-32c-46-18-137-45-203-61l-120-28h-7380c-7159 0-7383 1-7468 19-48 10-106 24-128 30l-40 12 872 775c480 425 1114 988 1408 1249 295 262 1060 941 1701 1509 641 569 1169 1037 1174 1042 6 5 0 19-14 34-42 45-10 26 58-34 190-166 828-704 904-761 303-228 673-395 1059-479 339-73 765-73 1109 1 330 70 659 208 933 391 174 117 221 157 654 557 213 197 391 358 394 357 4-1 620-546 1370-1212z" transform="matrix(.1 0 0 -.1 0 1231)" fill="#000000" stroke="none" stroke-width="2" vector-effect="non-scaling-stroke"/>
</svg>
